<?xml version="1.0" encoding="iso-8859-1"?>
<!-- Generator: Adobe Illustrator 18.0.0, SVG Export Plug-In . SVG Version: 6.00 Build 0)  -->
<!DOCTYPE svg PUBLIC "-//W3C//DTD SVG 1.1//EN" "http://www.w3.org/Graphics/SVG/1.1/DTD/svg11.dtd">
<svg version="1.1" id="Capa_1" xmlns="http://www.w3.org/2000/svg" xmlns:xlink="http://www.w3.org/1999/xlink" x="0px" y="0px"
	 viewBox="0 0 395.377 395.377" style="enable-background:new 0 0 395.377 395.377;" xml:space="preserve">
<g>
	<g>
		<g>
			<g>
				<path d="M116.173,56.667c-1.535,0-3.07-0.586-4.242-1.757c-3.563-3.563-5.525-8.299-5.525-13.339
					c0-5.039,1.962-9.776,5.525-13.339c7.354-7.355,19.322-7.354,26.677,0.001c2.343,2.343,2.343,6.142,0,8.484
					c-2.343,2.344-6.143,2.344-8.485,0c-2.676-2.675-7.031-2.676-9.707,0.001c-1.297,1.296-2.01,3.02-2.01,4.853
					s0.713,3.557,2.01,4.853c2.344,2.343,2.344,6.142,0.002,8.485C119.245,56.081,117.709,56.667,116.173,56.667z"/>
			</g>
		</g>
		<g>
			<g>
				<path d="M279.205,56.667c-1.536,0-3.071-0.586-4.243-1.758c-2.343-2.344-2.342-6.143,0.001-8.485
					c1.297-1.296,2.011-3.02,2.011-4.853s-0.714-3.557-2.011-4.853c-1.297-1.297-3.02-2.011-4.852-2.011
					c-1.834,0-3.558,0.714-4.855,2.011c-2.343,2.343-6.143,2.342-8.485-0.001c-2.343-2.344-2.343-6.143,0.001-8.485
					c3.564-3.563,8.301-5.524,13.339-5.524c5.038,0,9.775,1.962,13.338,5.525c3.563,3.562,5.525,8.299,5.525,13.338
					c0,5.04-1.963,9.776-5.526,13.339C282.275,56.081,280.74,56.667,279.205,56.667z"/>
			</g>
		</g>
		<g>
			<path d="M166.378,98.027c-1.58,0-3.119-0.64-4.24-1.76c-1.119-1.11-1.76-2.66-1.76-4.24c0-1.58,0.641-3.13,1.76-4.24
				c1.121-1.12,2.66-1.76,4.24-1.76c1.58,0,3.131,0.64,4.25,1.76c1.11,1.11,1.75,2.66,1.75,4.24c0,1.58-0.64,3.12-1.75,4.24
				C169.508,97.388,167.958,98.027,166.378,98.027z"/>
		</g>
		<g>
			<path d="M228.998,98.027c-1.58,0-3.13-0.64-4.25-1.76c-1.109-1.12-1.75-2.66-1.75-4.24c0-1.58,0.641-3.13,1.75-4.24
				c1.12-1.12,2.67-1.76,4.25-1.76c1.58,0,3.12,0.64,4.24,1.76c1.12,1.11,1.76,2.66,1.76,4.24c0,1.58-0.64,3.12-1.76,4.24
				C232.118,97.388,230.578,98.027,228.998,98.027z"/>
		</g>
		<path d="M251.649,269.003c-2.188-14.335-12.613-25.75-25.944-28.404c-10.378-2.067-20.41,1.525-28.017,9.715
			c-7.606-8.189-17.639-11.78-28.018-9.714c-13.33,2.654-23.756,14.069-25.943,28.404c-1.739,11.397-0.242,40.932,51.086,68.931
			c0.912,0.497,1.896,0.733,2.867,0.733l0.009-0.034l0.009,0.034c0.971,0,1.955-0.236,2.867-0.733
			C251.892,309.935,253.388,280.401,251.649,269.003z M197.689,325.799c-29.149-16.625-44.838-37.035-42.1-54.985
			c1.429-9.36,8.028-16.774,16.425-18.445c7.871-1.568,15.361,2.436,20.539,10.987l0.007-0.004c0.485,0.804,1.165,1.507,2.024,2.027
			c2.834,1.718,6.522,0.811,8.239-2.023c5.178-8.55,12.664-12.558,20.538-10.987c8.395,1.672,14.996,9.084,16.425,18.445
			C242.525,288.764,226.838,309.174,197.689,325.799z"/>
		<g>
			<path d="M88.948,323.588c-4.854,0-9.46,1.426-13.322,4.124c-11.397,7.966-13.356,24.915-4.366,37.782
				c5.694,8.15,14.538,13.016,23.656,13.016c4.855,0,9.462-1.426,13.322-4.124c5.669-3.96,9.187-10.179,9.905-17.511
				c0.686-6.98-1.281-14.179-5.537-20.27C106.911,328.454,98.067,323.588,88.948,323.588z M106.201,355.703
				c-0.371,3.785-2.089,6.927-4.836,8.847c-1.862,1.301-4.032,1.96-6.449,1.96c-5.124,0-10.419-3.022-13.819-7.889
				c-5.201-7.443-4.571-16.897,1.403-21.072c1.862-1.301,4.031-1.961,6.448-1.961c5.125,0,10.421,3.023,13.821,7.891
				C105.387,347.227,106.606,351.567,106.201,355.703z"/>
			<path d="M70.718,320.689c2.716-1.898,3.38-5.639,1.481-8.355l-7.611-10.896c-1.898-2.716-5.64-3.379-8.355-1.482
				c-2.717,1.898-3.38,5.639-1.482,8.355l7.613,10.896c1.166,1.67,3.029,2.564,4.924,2.564
				C68.473,321.771,69.673,321.419,70.718,320.689z"/>
			<path d="M319.75,327.712c-3.86-2.698-8.467-4.124-13.321-4.124c-9.118,0-17.962,4.866-23.656,13.018
				c-4.257,6.091-6.224,13.289-5.539,20.27c0.72,7.332,4.238,13.551,9.907,17.511c3.86,2.698,8.467,4.124,13.321,4.124
				c0.001,0,0.001,0,0.002,0c9.117,0,17.96-4.865,23.655-13.016C333.109,352.626,331.149,335.677,319.75,327.712z M314.282,358.621
				c-3.4,4.866-8.696,7.89-13.819,7.889c-2.418,0-4.588-0.659-6.449-1.961c-2.748-1.919-4.466-5.06-4.837-8.846
				c-0.406-4.135,0.814-8.477,3.433-12.225c3.399-4.867,8.695-7.891,13.819-7.891c2.417,0,4.587,0.659,6.448,1.96
				C318.852,341.724,319.482,351.177,314.282,358.621z"/>
			<path d="M367.295,321.494c-0.643-14.101-6.188-25.963-15.681-33.786c3.578-1.85,6.553-4.374,8.88-7.594
				c10.086-13.95,3.278-35.068,2.983-35.96c-0.018-0.053-0.036-0.105-0.055-0.158c-15.862-43.879-60.296-65.262-79.272-72.604
				c11.786-14.611,18.706-32.337,18.706-51.428c0-15.464-4.523-30.475-13.15-43.844c13.09-6.85,21.7-20.595,21.7-35.773
				C311.407,18.1,293.306,0,271.058,0c-20.157,0-36.909,14.858-39.879,34.198c-10.753-3.107-21.984-4.68-33.49-4.68
				c-11.507,0-22.735,1.571-33.49,4.68C161.229,14.858,144.477,0,124.319,0C102.071,0,83.97,18.1,83.97,40.348
				c0,15.178,8.612,28.924,21.702,35.773c-8.627,13.367-13.15,28.38-13.15,43.844c0,19.09,6.919,36.814,18.704,51.426
				c-18.979,7.344-63.412,28.733-79.271,72.605c-0.02,0.053-0.037,0.105-0.055,0.157c-0.295,0.893-7.103,22.011,2.982,35.961
				c2.326,3.218,5.286,5.757,8.859,7.609c-9.48,7.823-15.018,19.679-15.66,33.771c-0.674,14.735,4.122,30.243,13.502,43.668
				c13.022,18.637,32.998,30.215,52.133,30.215c8.867,0,17.187-2.538,24.059-7.34c4.276-2.987,7.858-6.726,10.694-11.065
				c20.774,12.047,44.563,18.402,69.213,18.404h0.012c24.651-0.002,48.44-6.357,69.211-18.406c2.836,4.34,6.418,8.079,10.694,11.066
				c6.871,4.802,15.19,7.34,24.058,7.341c0.002,0,0.002,0,0.004,0c19.133,0,39.109-11.578,52.13-30.215
				C363.173,351.737,367.967,336.228,367.295,321.494z M119.696,77.077c1.227-1.575,1.588-3.658,0.965-5.555
				c-0.623-1.896-2.148-3.36-4.068-3.902C104.45,64.188,95.97,52.974,95.97,40.348C95.97,24.717,108.688,12,124.319,12
				c15.631,0,28.348,12.717,28.348,28.348c0,0.555-0.019,1.104-0.051,1.649c-0.113,2.016,0.794,3.954,2.415,5.156
				c1.622,1.203,3.738,1.51,5.636,0.817c11.711-4.281,24.167-6.452,37.023-6.452c12.856,0,25.312,2.171,37.021,6.451
				c1.9,0.695,4.016,0.387,5.636-0.816c1.621-1.202,2.529-3.141,2.415-5.156c-0.03-0.546-0.05-1.095-0.05-1.649
				c0-15.631,12.716-28.348,28.347-28.348c15.632,0,28.349,12.717,28.349,28.348c0,12.626-8.479,23.841-20.62,27.272
				c-1.921,0.543-3.446,2.006-4.069,3.902c-0.622,1.896-0.261,3.979,0.965,5.555c9.928,12.764,15.175,27.594,15.175,42.888
				c0,43.256-41.795,78.446-93.168,78.446c-51.372,0-93.167-35.19-93.167-78.446C104.522,104.67,109.768,89.84,119.696,77.077z
				 M124.016,351.749c-0.525,11.518-5.183,20.91-13.113,26.451c-4.916,3.435-10.697,5.177-17.185,5.177
				c-15.277,0-31.483-9.613-42.295-25.088c-6.721-9.618-10.631-20.404-11.292-30.886c0.111,0.077,0.221,0.156,0.339,0.227
				l11.404,6.828c0.965,0.578,2.027,0.853,3.076,0.853c2.041,0,4.029-1.041,5.154-2.919c1.701-2.843,0.777-6.527-2.066-8.23
				l-11.404-6.828c-1.938-1.159-4.262-1.099-6.086-0.046c1.441-9.341,5.827-16.942,12.635-21.699
				c4.916-3.434,10.697-5.176,17.186-5.176c2.495,0,5.015,0.281,7.531,0.778c-1.613,1.351-2.469,3.511-2.047,5.726l2.49,13.059
				c0.549,2.875,3.064,4.877,5.887,4.877c0.373,0,0.752-0.035,1.131-0.107c3.256-0.62,5.391-3.762,4.771-7.018l-2.489-13.059
				c-0.028-0.146-0.066-0.288-0.104-0.43c9.456,4.171,18.352,11.564,25.127,21.261C120.538,326.77,124.569,339.643,124.016,351.749z
				 M259.374,352.296c0.224,4.892,1.041,9.512,2.401,13.791c-19.152,11.321-41.204,17.288-64.086,17.289
				c-22.88-0.001-44.934-5.968-64.087-17.288c1.361-4.279,2.179-8.899,2.402-13.791c0.672-14.735-4.123-30.244-13.504-43.669
				c-6.891-9.861-15.728-17.745-25.358-22.983c1.339-10.715,7.209-41.862,31.374-63.175c2.485-2.192,2.723-5.983,0.531-8.469
				c-2.191-2.484-5.982-2.724-8.469-0.531c-25.222,22.244-32.717,52.894-34.909,67.324c-5.063-1.553-10.212-2.38-15.302-2.38
				c-3.29,0-6.504,0.352-9.598,1.036c-7.723-0.103-13.157-2.232-16.145-6.344c-5.371-7.394-2.812-20.579-1.352-25.121
				c15.54-42.83,63.897-62.477,76.814-67.041c19.243,18.097,46.906,29.467,77.601,29.467c30.697,0,58.361-11.371,77.605-29.471
				c12.912,4.542,61.223,24.103,76.805,67.032c0.321,1.036,4.911,16.477-1.33,25.11c-2.984,4.127-8.424,6.264-16.163,6.367
				c-3.093-0.685-6.307-1.036-9.597-1.036c-5.09,0-10.237,0.826-15.3,2.38c-2.194-14.433-9.693-45.083-34.912-67.324
				c-2.484-2.19-6.276-1.953-8.469,0.531c-2.191,2.485-1.954,6.276,0.531,8.469c24.169,21.316,30.037,52.465,31.376,63.174
				c-9.63,5.239-18.469,13.122-25.358,22.984C263.497,322.053,258.701,337.56,259.374,352.296z M343.956,358.289
				c-10.813,15.475-27.018,25.088-42.294,25.088c-0.001,0-0.002,0-0.003,0c-6.488-0.001-12.271-1.742-17.186-5.178
				c-7.93-5.539-12.587-14.933-13.112-26.45c-0.553-12.106,3.479-24.979,11.354-36.248c6.774-9.697,15.67-17.09,25.126-21.261
				c-0.038,0.143-0.076,0.284-0.104,0.431l-2.488,13.059c-0.621,3.255,1.516,6.397,4.77,7.017c0.38,0.072,0.757,0.107,1.13,0.107
				c2.823,0,5.339-2.002,5.887-4.878l2.488-13.059c0.423-2.214-0.433-4.374-2.047-5.725c2.518-0.497,5.038-0.778,7.533-0.778
				c6.487,0,12.268,1.741,17.184,5.177c6.81,4.756,11.196,12.358,12.637,21.7c-1.826-1.055-4.152-1.116-6.087,0.044l-11.403,6.828
				c-2.844,1.702-3.768,5.387-2.065,8.23c1.124,1.878,3.113,2.919,5.153,2.919c1.049,0,2.111-0.275,3.076-0.853l11.403-6.828
				c0.118-0.07,0.228-0.149,0.339-0.227C354.585,337.885,350.675,348.671,343.956,358.289z"/>
			<path d="M339.144,299.956c-2.715-1.899-6.458-1.234-8.354,1.481l-7.613,10.896c-1.898,2.716-1.235,6.457,1.481,8.354
				c1.046,0.731,2.245,1.083,3.432,1.083c1.893,0,3.757-0.895,4.923-2.564l7.613-10.896
				C342.524,305.595,341.861,301.853,339.144,299.956z"/>
		</g>
		<path d="M197.688,102.485c-28.58,0-51.831,20.198-51.831,45.025c0,24.829,23.251,45.029,51.831,45.029
			c28.58,0,51.832-20.2,51.832-45.029C249.52,122.684,226.268,102.485,197.688,102.485z M197.689,114.485h0.001
			c7.267,0.001,13.406,4.4,13.406,9.608c0,5.209-6.14,9.609-13.407,9.609c-7.268,0-13.407-4.4-13.407-9.609
			C184.282,118.886,190.422,114.485,197.689,114.485z M197.688,180.54c-21.963,0-39.831-14.816-39.831-33.029
			c0-10.261,5.675-19.443,14.558-25.506c-0.079,0.688-0.133,1.383-0.133,2.089c0,10.157,8.285,18.695,19.407,20.995v8.643
			c0,3.069-2.497,5.566-5.567,5.566c-3.069,0-5.566-2.497-5.566-5.566c0-3.313-2.687-6-6-6c-3.314,0-6,2.687-6,6
			c0,9.687,7.881,17.566,17.566,17.566c4.432,0,8.473-1.662,11.567-4.379c3.093,2.717,7.135,4.379,11.565,4.379
			c9.688,0,17.568-7.88,17.568-17.566c0-3.313-2.687-6-6-6c-3.313,0-6,2.687-6,6c0,3.069-2.498,5.566-5.568,5.566
			c-3.068,0-5.565-2.497-5.565-5.566v-8.643c11.122-2.3,19.407-10.838,19.407-20.995c0-0.703-0.049-1.398-0.126-2.084
			c8.879,6.062,14.55,15.242,14.55,25.501C237.52,165.724,219.652,180.54,197.688,180.54z"/>
	</g>
</g>
<g>
</g>
<g>
</g>
<g>
</g>
<g>
</g>
<g>
</g>
<g>
</g>
<g>
</g>
<g>
</g>
<g>
</g>
<g>
</g>
<g>
</g>
<g>
</g>
<g>
</g>
<g>
</g>
<g>
</g>
</svg>
